# This file uses centimeters as units for non-parametric coordinates.

g default
v 0.238923 1.435193 0.914918
v 0.000000 1.534158 0.914918
v -0.238923 1.435193 0.914918
v -0.337889 1.196269 0.914918
v -0.238923 0.957346 0.914918
v 0.000000 0.858381 0.914918
v 0.238923 0.957346 0.914918
v 0.337889 1.196269 0.914918
v 0.098965 1.295235 1.162189
v 0.000000 1.336227 1.162189
v -0.098965 1.295235 1.162189
v -0.139958 1.196269 1.162189
v -0.098965 1.097304 1.162189
v 0.000000 1.056311 1.162189
v 0.098965 1.097304 1.162189
v 0.139958 1.196269 1.162189
v 0.000000 1.196269 1.263737
v 0.000000 1.196270 -0.378384
v 0.245680 1.441949 -0.378384
v 0.000000 1.543713 -0.378384
v -0.245680 1.441949 -0.378384
v -0.347443 1.196270 -0.378384
v -0.245680 0.950590 -0.378384
v 0.000000 0.848826 -0.378384
v 0.245680 0.950590 -0.378384
v 0.347444 1.196270 -0.378384
v 0.258609 1.454878 0.586885
v 0.000000 1.561997 0.586885
v -0.258609 1.454878 0.586885
v -0.365728 1.196269 0.586885
v -0.258609 0.937660 0.586885
v 0.000000 0.830541 0.586885
v 0.258609 0.937660 0.586885
v 0.365728 1.196269 0.586885
vt 0.000000 0.625000
vt 0.125000 0.625000
vt 0.250000 0.625000
vt 0.375000 0.625000
vt 0.500000 0.625000
vt 0.625000 0.625000
vt 0.750000 0.625000
vt 0.875000 0.625000
vt 1.000000 0.625000
vt 0.000000 0.875000
vt 0.125000 0.875000
vt 0.250000 0.875000
vt 0.375000 0.875000
vt 0.500000 0.875000
vt 0.625000 0.875000
vt 0.750000 0.875000
vt 0.875000 0.875000
vt 1.000000 0.875000
vt 0.187500 1.000000
vt 0.437500 1.000000
vt 0.687500 1.000000
vt 0.937500 1.000000
vt 0.024997 1.000000
vt 0.975003 1.000000
vt 0.500000 1.000000
vt 0.975003 1.000000
vt 0.500000 1.000000
vt 0.500000 1.000000
vt 0.975003 1.000000
vt 0.024998 1.000000
vt 0.024998 1.000000
vt 0.975003 1.000000
vt 0.024998 1.000000
vt 1.000000 0.492283
vt 0.000000 0.492283
vt 0.000042 0.492280
vt 0.999958 0.492280
vt 0.000000 0.492283
vt 1.000000 0.492283
vt 0.000000 0.492283
vt 1.000000 0.492283
vt 0.000000 0.492283
vt 1.000000 0.492283
vt 0.000042 0.492280
vt 0.999958 0.492280
vt 0.000000 0.492283
vt 1.000000 0.492283
vt 0.000000 0.492283
vt 1.000000 0.492283
vn 0.000000 0.958324 0.285683
vn 0.677638 0.677638 0.285683
vn 0.707090 0.707091 0.006809
vn 0.000000 0.999977 0.006809
vn -0.677638 0.677638 0.285683
vn -0.707090 0.707090 0.006809
vn -0.958324 -0.000000 0.285683
vn -0.999977 -0.000000 0.006809
vn -0.677638 -0.677638 0.285683
vn -0.707091 -0.707090 0.006809
vn 0.000000 -0.958324 0.285683
vn 0.000000 -0.999977 0.006809
vn 0.677638 -0.677638 0.285683
vn 0.707091 -0.707090 0.006809
vn 0.958324 -0.000000 0.285683
vn 0.999977 0.000000 0.006809
vn 0.000000 0.735348 0.677689
vn 0.531204 0.531204 0.660034
vn -0.531204 0.531204 0.660034
vn -0.735348 -0.000000 0.677690
vn -0.531204 -0.531203 0.660035
vn -0.000000 -0.735348 0.677689
vn 0.531204 -0.531203 0.660035
vn 0.735348 -0.000000 0.677690
vn 0.000000 -0.000000 1.000000
vn 0.706980 0.706980 -0.018939
vn 0.000000 0.999821 -0.018939
vn -0.000000 0.000000 -1.000000
vn -0.000000 -0.000000 -1.000000
vn 0.000000 -0.000000 -1.000000
vn 0.000000 -0.000000 -1.000000
vn 0.000000 -0.000000 -1.000000
vn 0.000000 -0.000000 -1.000000
vn -0.000000 -0.000000 -1.000000
vn 0.000000 -0.000000 -1.000000
vn 0.000000 -0.000000 -1.000000
vn -0.706980 0.706980 -0.018939
vn -0.999821 0.000000 -0.018939
vn -0.706980 -0.706980 -0.018939
vn 0.000000 -0.999821 -0.018939
vn 0.706980 -0.706980 -0.018939
vn 0.999821 0.000000 -0.018939
s 1
g pSphere1
f 2/2/1 1/1/2 27/34/3 28/36/4
f 3/3/5 2/2/1 28/37/4 29/38/6
f 4/4/7 3/3/5 29/39/6 30/40/8
f 5/5/9 4/4/7 30/41/8 31/42/10
f 6/6/11 5/5/9 31/43/10 32/44/12
f 7/7/13 6/6/11 32/45/12 33/46/14
f 8/8/15 7/7/13 33/47/14 34/48/16
f 1/9/2 8/8/15 34/49/16 27/35/3
f 2/2/1 10/11/17 9/10/18 1/1/2
f 3/3/5 11/12/19 10/11/17 2/2/1
f 4/4/7 12/13/20 11/12/19 3/3/5
f 5/5/9 13/14/21 12/13/20 4/4/7
f 6/6/11 14/15/22 13/14/21 5/5/9
f 7/7/13 15/16/23 14/15/22 6/6/11
f 8/8/15 16/17/24 15/16/23 7/7/13
f 1/9/2 9/18/18 16/17/24 8/8/15
f 17/19/25 10/11/17 11/12/19 12/13/20
f 17/20/25 12/13/20 13/14/21 14/15/22
f 17/21/25 14/15/22 15/16/23 16/17/24
f 17/22/25 16/17/24 9/10/18 10/11/17
f 19/23/26 20/25/27 28/36/4 27/34/3
s 2
f 23/31/28 22/24/29 18/28/30 24/27/31
f 22/30/29 21/29/32 20/25/33 18/28/30
f 18/28/30 20/25/33 19/23/34 26/26/35
f 24/27/31 18/28/30 26/33/35 25/32/36
s 1
f 29/38/6 28/37/4 20/25/27 21/29/37
f 30/40/8 29/39/6 21/29/37 22/30/38
f 31/42/10 30/41/8 22/24/38 23/31/39
f 32/44/12 31/43/10 23/31/39 24/27/40
f 33/46/14 32/45/12 24/27/40 25/32/41
f 34/48/16 33/47/14 25/32/41 26/33/42
f 34/49/16 26/26/42 19/23/26 27/35/3
